<?xml version="1.0" encoding="UTF-8"?>
<svg width="333px" height="73px" viewBox="0 0 333 73" version="1.1" xmlns="http://www.w3.org/2000/svg" xmlns:xlink="http://www.w3.org/1999/xlink">
    <title>3770157E-20E9-4FEB-88B0-87810B06F2CB</title>
    <defs>
        <polygon id="path-1" points="0 73 333 73 333 0 0 0"></polygon>
    </defs>
    <g id="Home" stroke="none" stroke-width="1" fill="none" fill-rule="evenodd">
        <g id="1-Home-new" transform="translate(-107.000000, -42.000000)">
            <g id="top-slider" transform="translate(0.000000, 12.000000)">
                <g id="Group-77" transform="translate(107.000000, 30.000000)">
                    <path d="M89,44.4946358 L89,61 L82.9119525,61 L82.9119525,46.0908007 C82.9119525,42.1015291 80.3706679,39.6582333 76.1357044,39.6582333 C71.1060146,39.707662 68.0880475,43.2475132 68.0880475,47.9348693 L68.0880475,61 L62,61 L62,24 L68.0880475,24 L68.0880475,39.6582333 C70.0997701,35.9176258 73.7001788,34.2720322 78.5175839,34.2720322 C85.0830802,34.2720322 89,38.1624466 89,44.4946358" id="Fill-1" fill="#FFFFFF"></path>
                    <path d="M114.012682,51.417268 L114.012682,48.9719247 L106.449273,48.9719247 C102.510188,48.9719247 100.672556,49.9704589 100.672556,52.5147424 C100.672556,54.9113767 102.720029,56.4586481 106.081291,56.4586481 C110.388358,56.4586481 113.69716,54.3124084 114.012682,51.417268 L114.012682,51.417268 Z M114.065142,57.5058913 C112.069369,59.8515334 108.865489,61 104.821483,61 C98.780944,61 95,57.4571823 95,52.765137 C95,47.9239204 98.8341646,44.8301387 105.555927,44.7799075 L114.012682,44.7799075 L114.012682,43.9807757 C114.012682,40.6373605 111.753847,38.6418142 107.341859,38.6418142 C104.663342,38.6418142 101.879904,39.5398861 99.0964662,41.3367911 L96.6277903,37.3441763 C100.514415,35.1477055 103.351074,34 108.655647,34 C115.851074,34 119.895079,37.4933476 119.94754,43.3323374 L120,60.7503664 L114.065142,60.7503664 L114.065142,57.5058913 Z" id="Fill-3" fill="#FFFFFF"></path>
                    <path d="M149.939045,47.2173223 C149.939045,42.3342455 146.437715,38.7349224 141.474283,38.7349224 C136.510094,38.7349224 133.008764,42.2853621 133.008764,47.2173223 C133.008764,52.2959326 136.510094,55.798241 141.474283,55.798241 C146.437715,55.798241 149.939045,52.2470492 149.939045,47.2173223 M156,47.41436 C156,55.2552591 150.7741,60.6301782 142.832003,60.6301782 C138.39048,60.6301782 135.046479,58.9538532 133.008764,55.8967599 L133.008764,70 L127,70 L127,34.1977898 L133.008764,34.1977898 L133.008764,38.7349224 C135.046479,35.677077 138.39048,34 142.727621,34 C150.616771,34 156,39.4253066 156,47.41436" id="Fill-5" fill="#FFFFFF"></path>
                    <path d="M184.938447,47.2173223 C184.938447,42.3342455 181.437965,38.7349224 176.473905,38.7349224 C171.509846,38.7349224 168.008607,42.2853621 168.008607,47.2173223 C168.008607,52.2959326 171.509846,55.798241 176.473905,55.798241 C181.437965,55.798241 184.938447,52.2470492 184.938447,47.2173223 M191,47.41436 C191,55.2552591 185.77348,60.6301782 177.83159,60.6301782 C173.390183,60.6301782 170.047025,58.9538532 168.008607,55.8967599 L168.008607,70 L162,70 L162,34.1977898 L168.008607,34.1977898 L168.008607,38.7349224 C170.047025,35.677077 173.390183,34 177.727967,34 C185.616155,34 191,39.4253066 191,47.41436" id="Fill-7" fill="#FFFFFF"></path>
                    <path d="M217.719546,45.5007343 C217.512701,41.2002542 214.550671,38.6001412 210.029401,38.6001412 C205.665333,38.6001412 202.599505,41.2513414 201.92406,45.5007343 L217.719546,45.5007343 Z M222.915509,49.7013273 L202.027859,49.7013273 C202.962801,53.8012708 206.236228,56.351059 210.601047,56.351059 C213.614976,56.351059 216.368656,55.2500141 218.394991,53.2507484 L221.564619,56.5012708 C218.862839,59.3499576 214.913967,61 210.1332,61 C201.611911,61 196,55.5512002 196,47.5503248 C196,39.5006495 201.768361,34.0503248 209.977501,34 C219.693982,34 223.643606,40.1007343 222.915509,49.7013273 L222.915509,49.7013273 Z" id="Fill-9" fill="#FFFFFF"></path>
                    <path d="M257,44.3266473 L257,61 L250.900179,61 L250.900179,45.9390577 C250.900179,41.909184 248.353212,39.4410208 244.110059,39.4410208 C239.442283,39.4909525 236.525211,42.5636736 236.099821,46.7448788 L236.099821,61 L230,61 L230,34.2020314 L236.099821,34.2020314 L236.099821,39.3403892 C238.115434,35.6124104 241.722805,34 246.496545,34 C253.074738,34 257,37.9300102 257,44.3266473" id="Fill-11" fill="#FFFFFF"></path>
                    <mask id="mask-2" fill="white">
                        <use xlink:href="#path-1"></use>
                    </mask>
                    <g id="Clip-14"></g>
                    <path d="M264.52328,61 L270.477477,61 L270.477477,34.1881801 L264.52328,34.1881801 L264.52328,61 Z M271,26.5277699 C271,28.5445168 269.485362,30.0055823 267.500378,30.0055823 C265.514638,30.0055823 264,28.5445168 264,26.5277699 C264,24.4610655 265.514638,23 267.500378,23 C269.485362,23 271,24.4610655 271,26.5277699 L271,26.5277699 Z" id="Fill-13" fill="#FFFFFF" mask="url(#mask-2)"></path>
                    <polygon id="Fill-15" fill="#FFFFFF" mask="url(#mask-2)" points="284.178628 56.3662556 300 56.4138651 300 61 277 60.9509027 277 57.1458613 292.366991 39.5846471 277.455844 39.5846471 277.455844 35 299.544888 35.0483534 299.544888 38.8042974"></polygon>
                    <path d="M327.719823,45.5007343 C327.51223,41.2002542 324.550265,38.6001412 320.029094,38.6001412 C315.665122,38.6001412 312.59936,41.2513414 311.92393,45.5007343 L327.719823,45.5007343 Z M332.915672,49.7013273 L312.027727,49.7013273 C312.963401,53.8012708 316.236003,56.351059 320.601479,56.351059 C323.614591,56.351059 326.36821,55.2500141 328.394501,53.2507484 L331.564059,56.5012708 C328.862338,59.3499576 324.914305,61 320.133642,61 C311.611788,61 306,55.5512002 306,47.5503248 C306,39.5006495 311.768235,34.0503248 319.977195,34 C329.693463,34 333.643001,40.1007343 332.915672,49.7013273 L332.915672,49.7013273 Z" id="Fill-16" fill="#FFFFFF" mask="url(#mask-2)"></path>
                    <path d="M199.229052,69.9677096 C199.229052,69.1844806 199.024408,68.5957447 198.614377,68.2 C198.204346,67.8020025 197.595624,67.6037547 196.787468,67.6037547 L195.728531,67.6037547 L195.728531,72.3969962 L196.614824,72.3969962 C197.483256,72.3969962 198.136627,72.1927409 198.573448,71.7834793 C199.010269,71.3749687 199.229052,70.7682103 199.229052,69.9677096 M200,69.9429287 C200,70.9326658 199.719452,71.690363 199.158357,72.2137672 C198.596517,72.7379224 197.789106,73 196.734633,73 L195,73 L195,67 L196.919184,67 C197.893288,67 198.650841,67.2590738 199.190356,67.7757196 C199.730615,68.2938673 200,69.0147685 200,69.9429287" id="Fill-17" fill="#FFFFFF" mask="url(#mask-2)"></path>
                    <polygon id="Fill-18" fill="#FFFFFF" mask="url(#mask-2)" points="206 73 202 73 202 67 206 67 206 67.6202753 202.83376 67.6202753 202.83376 69.5524406 205.808184 69.5524406 205.808184 70.1682103 202.83376 70.1682103 202.83376 72.3767209 206 72.3767209"></polygon>
                    <path d="M210,71.3674215 C210,71.880935 209.796111,72.2819576 209.390598,72.5697589 C208.985841,72.8568298 208.434586,73 207.739098,73 C206.986219,73 206.405513,72.9116143 206,72.7326516 L206,72.0781592 C206.26128,72.1796932 206.545214,72.2593134 206.852558,72.3177502 C207.159147,72.376187 207.464225,72.4061359 207.765528,72.4061359 C208.257127,72.4061359 208.629413,72.3199416 208.878611,72.1482834 C209.127808,71.9758948 209.252407,71.7370343 209.252407,71.431702 C209.252407,71.2308254 209.207854,71.0642805 209.120257,70.9342586 C209.03115,70.8049671 208.883141,70.6859021 208.676232,70.5770636 C208.469322,70.468225 208.153672,70.3447772 207.730791,70.2059898 C207.139513,70.0116874 206.716632,69.7808619 206.462148,69.5157049 C206.20842,69.2490869 206.083066,68.9013879 206.083066,68.4733382 C206.083066,68.0233747 206.266566,67.6661797 206.635076,67.3988313 C207.002832,67.1336742 207.490655,67 208.096281,67 C208.726827,67 209.308288,67.1066472 209.839154,67.3199416 L209.607325,67.9108839 C209.08401,67.7078159 208.573532,67.6077429 208.078157,67.6077429 C207.686993,67.6077429 207.380404,67.6844412 207.160657,67.8385683 C206.940155,67.9934259 206.830659,68.2067202 206.830659,68.4813733 C206.830659,68.6829803 206.869926,68.8495252 206.952237,68.9780862 C207.033038,69.1073776 207.170474,69.2257122 207.363791,69.3338203 C207.556353,69.441198 207.850859,69.560263 208.248065,69.6902849 C208.914857,69.9086925 209.37323,70.1431702 209.623938,70.393718 C209.874646,70.6442659 210,70.9678598 210,71.3674215" id="Fill-19" fill="#FFFFFF" mask="url(#mask-2)"></path>
                    <polygon id="Fill-20" fill="#FFFFFF" mask="url(#mask-2)" points="211.0105 73 211.9895 73 211.9895 67 211.0105 67"></polygon>
                    <path d="M216.95672,69.862325 L219,69.862325 L219,72.7012781 C218.682188,72.7991479 218.359377,72.8736458 218.029424,72.9240414 C217.7009,72.9751674 217.319526,73 216.886016,73 C215.976146,73 215.26839,72.7377967 214.76132,72.211199 C214.253535,71.6860621 214,70.9491175 214,70.0025563 C214,69.3948874 214.124982,68.8639075 214.376375,68.4074254 C214.627053,67.9509434 214.98843,67.6025563 215.459791,67.3615338 C215.931153,67.1212416 216.483931,67 217.117412,67 C217.758035,67 218.355806,67.1153987 218.909299,67.3440049 L218.637909,67.9429093 C218.095843,67.7186853 217.573061,67.6076689 217.07099,67.6076689 C216.339666,67.6076689 215.768319,67.8187462 215.356949,68.2416312 C214.945579,68.6645161 214.739894,69.2517346 214.739894,70.0025563 C214.739894,70.7906269 214.938437,71.3873402 215.334809,71.7948874 C215.730467,72.2017042 216.312527,72.4054778 217.080274,72.4054778 C217.496643,72.4054778 217.903014,72.358734 218.300814,72.2652465 L218.300814,70.4692635 L216.95672,70.4692635 L216.95672,69.862325 Z" id="Fill-21" fill="#FFFFFF" mask="url(#mask-2)"></path>
                    <path d="M225,73 L224.151331,73 L220.652471,67.9642053 L220.61749,67.9642053 C220.664639,68.5559449 220.687452,69.0981227 220.687452,69.5899875 L220.687452,73 L220,73 L220,67 L220.840304,67 L224.330038,72.0155194 L224.365019,72.0155194 C224.358935,71.9419274 224.346008,71.7031289 224.325475,71.3028786 C224.304943,70.9026283 224.298099,70.6157697 224.304183,70.4438048 L224.304183,67 L225,67 L225,73 Z" id="Fill-22" fill="#FFFFFF" mask="url(#mask-2)"></path>
                    <path d="M230.310562,68.2517933 C230.310562,68.4356231 230.362743,68.6099696 230.467104,68.7762918 C230.571465,68.9418845 230.749937,69.1424924 231.002521,69.3759271 C231.376859,69.1767781 231.637762,68.9929483 231.783716,68.8237082 C231.931182,68.6551976 232.003781,68.4604255 232.003781,68.2393921 C232.003781,68.0351368 231.92967,67.8688146 231.779934,67.7389666 C231.630199,67.609848 231.429796,67.546383 231.180993,67.546383 C230.923116,67.546383 230.712881,67.6091185 230.551802,67.7375076 C230.390723,67.8651672 230.310562,68.0365957 230.310562,68.2517933 M230.985127,72.4062006 C231.684648,72.4062006 232.26544,72.2012158 232.725989,71.7919757 L230.824048,70.1017629 C230.501891,70.2826748 230.273506,70.4314894 230.140408,70.5496657 C230.00731,70.6685714 229.908243,70.7955015 229.844719,70.9304559 C229.781195,71.0661398 229.748677,71.2200608 229.748677,71.3929483 C229.748677,71.7037082 229.861356,71.9502736 230.085959,72.1326444 C230.310562,72.3150152 230.610033,72.4062006 230.985127,72.4062006 M229,71.408997 C229,71.0632219 229.10058,70.7590274 229.302496,70.4920365 C229.504411,70.2265046 229.865894,69.9580547 230.389211,69.6874164 C230.141921,69.4342857 229.974036,69.2431611 229.885556,69.1133131 C229.797076,68.9827356 229.727502,68.8470517 229.673809,68.7062614 C229.623141,68.5654711 229.596673,68.418845 229.596673,68.2671125 C229.596673,67.8695441 229.738845,67.5580547 230.023191,67.3341033 C230.307537,67.1116109 230.703806,67 231.211243,67 C231.681623,67 232.05218,67.1108815 232.321402,67.3326444 C232.592891,67.5544073 232.725989,67.8637082 232.725989,68.2598176 C232.725989,68.5443161 232.627678,68.8069301 232.431056,69.0469301 C232.233678,69.2876596 231.906226,69.5320365 231.450971,69.7786018 L233.223595,71.3367781 C233.38543,71.1726444 233.515503,70.9793313 233.613058,70.7582979 C233.710613,70.5358055 233.792286,70.2928875 233.858835,70.0302736 L234.590875,70.0302736 C234.393496,70.7896657 234.096294,71.3666869 233.697756,71.7606079 L235,72.9197568 L234.002521,72.9197568 L233.197126,72.2106991 C232.85455,72.4915502 232.505924,72.6943465 232.15276,72.8161702 C231.798084,72.9387234 231.403327,73 230.967734,73 C230.343837,73 229.859844,72.8592097 229.515755,72.5776292 C229.171666,72.2960486 229,71.9065046 229,71.408997" id="Fill-23" fill="#FFFFFF" mask="url(#mask-2)"></path>
                    <path d="M239.957012,69.862325 L242,69.862325 L242,72.7012781 C241.682234,72.7991479 241.359469,72.8736458 241.030277,72.9240414 C240.701085,72.9751674 240.319766,73 239.886318,73 C238.976578,73 238.268923,72.7377967 237.761925,72.211199 C237.254927,71.6860621 237,70.9491175 237,70.0025563 C237,69.3948874 237.126392,68.8639075 237.377035,68.4074254 C237.627678,67.9509434 237.989003,67.6025563 238.460297,67.3615338 C238.931591,67.1212416 239.48429,67 240.117681,67 C240.758926,67 241.355898,67.1153987 241.909312,67.3440049 L241.637961,67.9429093 C241.095973,67.7186853 240.573265,67.6076689 240.071979,67.6076689 C239.340046,67.6076689 238.76878,67.8187462 238.357469,68.2416312 C237.946158,68.6645161 237.740503,69.2517346 237.740503,70.0025563 C237.740503,70.7906269 237.939017,71.3873402 238.335333,71.7948874 C238.730934,72.2017042 239.312911,72.4054778 240.080548,72.4054778 C240.496858,72.4054778 240.903171,72.358734 241.300914,72.2652465 L241.300914,70.4692635 L239.957012,70.4692635 L239.957012,69.862325 Z" id="Fill-24" fill="#FFFFFF" mask="url(#mask-2)"></path>
                    <path d="M244.825464,69.9053817 L245.956998,69.9053817 C246.538786,69.9053817 246.966273,69.8077597 247.237774,69.6117647 C247.510118,69.4172716 247.646712,69.1236546 247.646712,68.7324155 C247.646712,68.335169 247.507589,68.0490613 247.231029,67.8740926 C246.953626,67.6991239 246.510118,67.612015 245.897976,67.612015 L244.825464,67.612015 L244.825464,69.9053817 Z M244.825464,70.5046308 L244.825464,73 L244,73 L244,67 L245.946037,67 C246.817032,67 247.460371,67.1411765 247.876054,67.4227785 C248.29258,67.7043805 248.5,68.1286608 248.5,68.6956195 C248.5,69.4878598 248.024452,70.024781 247.073356,70.3041302 L249,73 L248.024452,73 L246.306071,70.5046308 L244.825464,70.5046308 Z" id="Fill-25" fill="#FFFFFF" mask="url(#mask-2)"></path>
                    <path d="M249.803357,69.9978113 C249.803357,70.7872082 249.991607,71.3854572 250.368108,71.7940175 C250.743835,72.2018482 251.289994,72.406858 252.006585,72.406858 C252.729374,72.406858 253.273209,72.2025778 253.643512,71.7962062 C254.012266,71.3891051 254.196643,70.7901265 254.196643,69.9978113 C254.196643,69.2135214 254.013041,68.6189202 253.645836,68.2132782 C253.277857,67.8083658 252.734797,67.6055447 252.014332,67.6055447 C251.293092,67.6055447 250.743835,67.8090953 250.368108,68.2183852 C249.991607,68.6254864 249.803357,69.219358 249.803357,69.9978113 M255,69.9978113 C255,70.9302043 254.73583,71.6641537 254.208263,72.1996595 C253.679923,72.7329767 252.946288,73 252.006585,73 C251.045965,73 250.304584,72.7380837 249.78399,72.2120623 C249.261846,71.6875 249,70.9469844 249,69.989786 C249,69.0406128 249.262621,68.3052043 249.786314,67.7835603 C250.308457,67.2604572 251.052163,67 252.014332,67 C252.952485,67 253.683796,67.2655642 254.209813,67.7966926 C254.736604,68.3285506 255,69.0625 255,69.9978113" id="Fill-26" fill="#FFFFFF" mask="url(#mask-2)"></path>
                    <path d="M262.301132,73 L261.571321,73 L260.289057,68.9817272 C260.227925,68.8045056 260.16,68.579975 260.084528,68.309637 C260.009811,68.0385482 259.969811,67.8763454 259.967547,67.8215269 C259.903396,68.1819775 259.802264,68.5769712 259.663396,69.0072591 L258.419623,73 L257.691321,73 L256,67 L256.782642,67 L257.78717,70.7058824 C257.925283,71.2262829 258.02717,71.6971214 258.090566,72.1176471 C258.168302,71.616771 258.285283,71.1271589 258.437736,70.6480601 L259.576604,67 L260.359245,67 L261.553962,70.6818523 C261.69283,71.1053817 261.810566,71.5844806 261.90566,72.1176471 C261.960755,71.7301627 262.06566,71.2555695 262.218868,70.698373 L263.217358,67 L264,67 L262.301132,73 Z" id="Fill-27" fill="#FFFFFF" mask="url(#mask-2)"></path>
                    <polygon id="Fill-28" fill="#FFFFFF" mask="url(#mask-2)" points="266.887815 73 266.112185 73 266.112185 67.6202753 264 67.6202753 264 67 269 67 269 67.6202753 266.887815 67.6202753"></polygon>
                    <polygon id="Fill-29" fill="#FFFFFF" mask="url(#mask-2)" points="274 73 273.234079 73 273.234079 70.1764706 269.765921 70.1764706 269.765921 73 269 73 269 67 269.765921 67 269.765921 69.5524406 273.234079 69.5524406 273.234079 67 274 67"></polygon>
                    <polygon id="Fill-30" fill="#FFFFFF" mask="url(#mask-2)" points="283 73 282.234079 73 282.234079 70.1764706 278.766703 70.1764706 278.766703 73 278 73 278 67 278.766703 67 278.766703 69.5524406 282.234079 69.5524406 282.234079 67 283 67"></polygon>
                    <path d="M287.413964,70.4745108 L286.757974,68.6220865 C286.673546,68.3887573 286.585768,68.1008351 286.49598,67.7598155 C286.439694,68.0223109 286.358617,68.3094852 286.252747,68.6220865 L285.589386,70.4745108 L287.413964,70.4745108 Z M288.320557,73 L287.619003,71.0997133 L285.358215,71.0997133 L284.664031,73 L284,73 L286.229295,67 L286.781426,67 L289,73 L288.320557,73 Z" id="Fill-31" fill="#FFFFFF" mask="url(#mask-2)"></path>
                    <path d="M290.733746,70.0413016 L291.394042,70.0413016 C292.044594,70.0413016 292.514521,69.9414268 292.806071,69.742428 C293.095372,69.5419274 293.241521,69.2220275 293.241521,68.7812265 C293.241521,68.3847309 293.104366,68.0888611 292.831553,67.8958698 C292.557991,67.7006258 292.132284,67.6037547 291.553682,67.6037547 L290.733746,67.6037547 L290.733746,70.0413016 Z M294,68.7481852 C294,69.3564456 293.782649,69.8235294 293.346449,70.1501877 C292.910999,70.4768461 292.286678,70.6413016 291.475735,70.6413016 L290.733746,70.6413016 L290.733746,73 L290,73 L290,67 L291.636125,67 C293.212292,67 294,67.5834793 294,68.7481852 L294,68.7481852 Z" id="Fill-32" fill="#FFFFFF" mask="url(#mask-2)"></path>
                    <path d="M295.733746,70.0413016 L296.394042,70.0413016 C297.044594,70.0413016 297.514521,69.9414268 297.805321,69.742428 C298.095372,69.5419274 298.241521,69.2220275 298.241521,68.7812265 C298.241521,68.3847309 298.104366,68.0888611 297.831553,67.8958698 C297.557991,67.7006258 297.132284,67.6037547 296.553682,67.6037547 L295.733746,67.6037547 L295.733746,70.0413016 Z M299,68.7481852 C299,69.3564456 298.782649,69.8235294 298.346449,70.1501877 C297.910999,70.4768461 297.286678,70.6413016 296.475735,70.6413016 L295.733746,70.6413016 L295.733746,73 L295,73 L295,67 L296.636125,67 C298.212292,67 299,67.5834793 299,68.7481852 L299,68.7481852 Z" id="Fill-33" fill="#FFFFFF" mask="url(#mask-2)"></path>
                    <polygon id="Fill-34" fill="#FFFFFF" mask="url(#mask-2)" points="305 73 301 73 301 67 305 67 305 67.6202753 301.83376 67.6202753 301.83376 69.5524406 304.808184 69.5524406 304.808184 70.1682103 301.83376 70.1682103 301.83376 72.3767209 305 72.3767209"></polygon>
                    <path d="M311,73 L310.15057,73 L306.652471,67.9642053 L306.61749,67.9642053 C306.664639,68.5559449 306.687452,69.0981227 306.687452,69.5899875 L306.687452,73 L306,73 L306,67 L306.840304,67 L310.330038,72.0155194 L310.365019,72.0155194 C310.358935,71.9419274 310.346008,71.7031289 310.325475,71.3028786 C310.304943,70.9026283 310.298099,70.6157697 310.303422,70.4438048 L310.303422,67 L311,67 L311,73 Z" id="Fill-35" fill="#FFFFFF" mask="url(#mask-2)"></path>
                    <polygon id="Fill-36" fill="#FFFFFF" mask="url(#mask-2)" points="313.0105 73 313.9895 73 313.9895 67 313.0105 67"></polygon>
                    <path d="M320,73 L319.151331,73 L315.651711,67.9642053 L315.61749,67.9642053 C315.663878,68.5559449 315.687452,69.0981227 315.687452,69.5899875 L315.687452,73 L315,73 L315,67 L315.841065,67 L319.330038,72.0155194 L319.365019,72.0155194 C319.358935,71.9419274 319.346008,71.7031289 319.325475,71.3028786 C319.304943,70.9026283 319.298099,70.6157697 319.303422,70.4438048 L319.303422,67 L320,67 L320,73 Z" id="Fill-37" fill="#FFFFFF" mask="url(#mask-2)"></path>
                    <path d="M323.95672,69.862325 L326,69.862325 L326,72.7012781 C325.682188,72.7991479 325.359377,72.8736458 325.030139,72.9240414 C324.7009,72.9751674 324.319526,73 323.886016,73 C322.976146,73 322.26839,72.7377967 321.76132,72.211199 C321.254249,71.6860621 321,70.9491175 321,70.0025563 C321,69.3948874 321.125696,68.8639075 321.376375,68.4074254 C321.627053,67.9509434 321.98843,67.6025563 322.459791,67.3615338 C322.931153,67.1212416 323.483931,67 324.117412,67 C324.758749,67 325.355806,67.1153987 325.909299,67.3440049 L325.637909,67.9429093 C325.095843,67.7186853 324.573061,67.6076689 324.071704,67.6076689 C323.339666,67.6076689 322.768319,67.8187462 322.356949,68.2416312 C321.946293,68.6645161 321.739894,69.2517346 321.739894,70.0025563 C321.739894,70.7906269 321.938437,71.3873402 322.334809,71.7948874 C322.730467,72.2017042 323.312527,72.4054778 324.080274,72.4054778 C324.496643,72.4054778 324.903014,72.358734 325.300814,72.2652465 L325.300814,70.4692635 L323.95672,70.4692635 L323.95672,69.862325 Z" id="Fill-38" fill="#FFFFFF" mask="url(#mask-2)"></path>
                    <path d="M332,71.3674215 C332,71.880935 331.796904,72.2819576 331.390713,72.5697589 C330.985277,72.8568298 330.434881,73 329.739524,73 C328.986032,73 328.405436,72.9116143 328,72.7326516 L328,72.0781592 C328.261231,72.1796932 328.545111,72.2593134 328.852397,72.3177502 C329.158928,72.376187 329.464704,72.4061359 329.765194,72.4061359 C330.257456,72.4061359 330.628917,72.3199416 330.878822,72.1482834 C331.127218,71.9758948 331.251793,71.7370343 331.251793,71.431702 C331.251793,71.2308254 331.207248,71.0642805 331.119668,70.9342586 C331.031333,70.8049671 330.883352,70.6859021 330.675727,70.5770636 C330.468856,70.468225 330.15402,70.3447772 329.730464,70.2059898 C329.139298,70.0116874 328.716497,69.7808619 328.462816,69.5157049 C328.209136,69.2490869 328.08305,68.9013879 328.08305,68.4733382 C328.08305,68.0233747 328.267271,67.6661797 328.634957,67.3988313 C329.002643,67.1336742 329.490374,67 330.095885,67 C330.726312,67 331.308418,67.1066472 331.839185,67.3199416 L331.608154,67.9108839 C331.084183,67.7078159 330.573046,67.6077429 330.077765,67.6077429 C329.687429,67.6077429 329.380898,67.6844412 329.160438,67.8385683 C328.940732,67.9934259 328.831257,68.2067202 328.831257,68.4813733 C328.831257,68.6829803 328.871272,68.8495252 328.952812,68.9780862 C329.033598,69.1073776 329.171008,69.2257122 329.363533,69.3338203 C329.556059,69.441198 329.85051,69.560263 330.247641,69.6902849 C330.914307,69.9086925 331.372593,70.1431702 331.624009,70.393718 C331.873915,70.6442659 332,70.9678598 332,71.3674215" id="Fill-39" fill="#FFFFFF" mask="url(#mask-2)"></path>
                    <path d="M41,39.3967264 C41,39.7303196 40.7299497,40 40.3962711,40 L36.6044688,40 C36.2700503,40 36,39.7303196 36,39.3967264 L36,35.6048324 C36,35.2712393 36.2700503,35 36.6044688,35 L40.3962711,35 C40.7299497,35 41,35.2712393 41,35.6048324 L41,39.3967264 Z" id="Fill-40" fill="#FFFFFF" mask="url(#mask-2)"></path>
                    <path d="M48,39.3967264 C48,39.7303196 47.7299497,40 47.3962711,40 L43.6037289,40 C43.2700503,40 43,39.7303196 43,39.3967264 L43,35.6048324 C43,35.2712393 43.2700503,35 43.6037289,35 L47.3962711,35 C47.7299497,35 48,35.2712393 48,35.6048324 L48,39.3967264 Z" id="Fill-41" fill="#FFFFFF" mask="url(#mask-2)"></path>
                    <path d="M41,32.3966324 C41,32.7302775 40.7299497,33 40.3962711,33 L36.6044688,33 C36.2700503,33 36,32.7302775 36,32.3966324 L36,28.6041472 C36,28.270502 36.2700503,28 36.6044688,28 L40.3962711,28 C40.7299497,28 41,28.270502 41,28.6041472 L41,32.3966324 Z" id="Fill-42" fill="#FFFFFF" mask="url(#mask-2)"></path>
                    <path d="M48,32.3966324 C48,32.7302775 47.7299497,33 47.3962711,33 L43.6037289,33 C43.2700503,33 43,32.7302775 43,32.3966324 L43,28.6041472 C43,28.270502 43.2700503,28 43.6037289,28 L47.3962711,28 C47.7299497,28 48,28.270502 48,28.6041472 L48,32.3966324 Z" id="Fill-43" fill="#FFFFFF" mask="url(#mask-2)"></path>
                    <path d="M41,25.3966324 C41,25.7302775 40.7299497,26 40.3962711,26 L36.6044688,26 C36.2700503,26 36,25.7302775 36,25.3966324 L36,21.6041472 C36,21.270502 36.2700503,21 36.6044688,21 L40.3962711,21 C40.7299497,21 41,21.270502 41,21.6041472 L41,25.3966324 Z" id="Fill-44" fill="#FFFFFF" mask="url(#mask-2)"></path>
                    <path d="M48,25.3966324 C48,25.7302775 47.7299497,26 47.3962711,26 L43.6037289,26 C43.2700503,26 43,25.7302775 43,25.3966324 L43,21.6041472 C43,21.270502 43.2700503,21 43.6037289,21 L47.3962711,21 C47.7299497,21 48,21.270502 48,21.6041472 L48,25.3966324 Z" id="Fill-45" fill="#FFFFFF" mask="url(#mask-2)"></path>
                    <path d="M11,46.395947 C11,46.7295401 10.7292098,47 10.3962711,47 L6.60372891,47 C6.27005031,47 6,46.7295401 6,46.395947 L6,42.604053 C6,42.2704599 6.27005031,42 6.60372891,42 L10.3962711,42 C10.7292098,42 11,42.2704599 11,42.604053 L11,46.395947 Z" id="Fill-46" fill="#FFFFFF" mask="url(#mask-2)"></path>
                    <path d="M18,46.395947 C18,46.7295401 17.7292098,47 17.3962711,47 L13.6044688,47 C13.2700503,47 13,46.7295401 13,46.395947 L13,42.604053 C13,42.2704599 13.2700503,42 13.6044688,42 L17.3962711,42 C17.7292098,42 18,42.2704599 18,42.604053 L18,46.395947 Z" id="Fill-47" fill="#FFFFFF" mask="url(#mask-2)"></path>
                    <path d="M11,39.395947 C11,39.7295401 10.7292098,40 10.3962711,40 L6.60372891,40 C6.27005031,40 6,39.7295401 6,39.395947 L6,35.604053 C6,35.2704599 6.27005031,35 6.60372891,35 L10.3962711,35 C10.7292098,35 11,35.2704599 11,35.604053 L11,39.395947 Z" id="Fill-48" fill="#FFFFFF" mask="url(#mask-2)"></path>
                    <path d="M18,39.395947 C18,39.7295401 17.7292098,40 17.3962711,40 L13.6044688,40 C13.2700503,40 13,39.7295401 13,39.395947 L13,35.604053 C13,35.2704599 13.2700503,35 13.6044688,35 L17.3962711,35 C17.7292098,35 18,35.2704599 18,35.604053 L18,39.395947 Z" id="Fill-49" fill="#FFFFFF" mask="url(#mask-2)"></path>
                    <path d="M41,46.395947 C41,46.7295401 40.7299497,47 40.3962711,47 L36.6044688,47 C36.2700503,47 36,46.7295401 36,46.395947 L36,42.604053 C36,42.2704599 36.2700503,42 36.6044688,42 L40.3962711,42 C40.7299497,42 41,42.2704599 41,42.604053 L41,46.395947 Z" id="Fill-50" fill="#FFFFFF" mask="url(#mask-2)"></path>
                    <path d="M48,46.395947 C48,46.7295401 47.7299497,47 47.3962711,47 L43.6037289,47 C43.2700503,47 43,46.7295401 43,46.395947 L43,42.604053 C43,42.2704599 43.2700503,42 43.6037289,42 L47.3962711,42 C47.7299497,42 48,42.2704599 48,42.604053 L48,46.395947 Z" id="Fill-51" fill="#FFFFFF" mask="url(#mask-2)"></path>
                    <path d="M11,53.3967264 C11,53.7303196 10.7292098,54 10.3962711,54 L6.60372891,54 C6.27005031,54 6,53.7303196 6,53.3967264 L6,49.6048324 C6,49.2704599 6.27005031,49 6.60372891,49 L10.3962711,49 C10.7292098,49 11,49.2704599 11,49.6048324 L11,53.3967264 Z" id="Fill-52" fill="#FFFFFF" mask="url(#mask-2)"></path>
                    <path d="M18,53.3967264 C18,53.7303196 17.7292098,54 17.3962711,54 L13.6044688,54 C13.2700503,54 13,53.7303196 13,53.3967264 L13,49.6048324 C13,49.2704599 13.2700503,49 13.6044688,49 L17.3962711,49 C17.7292098,49 18,49.2704599 18,49.6048324 L18,53.3967264 Z" id="Fill-53" fill="#FFFFFF" mask="url(#mask-2)"></path>
                    <path d="M26,53.3967264 C26,53.7303196 25.7292098,54 25.3962711,54 L21.6044688,54 C21.2700503,54 21,53.7303196 21,53.3967264 L21,49.6048324 C21,49.2704599 21.2700503,49 21.6044688,49 L25.3962711,49 C25.7292098,49 26,49.2704599 26,49.6048324 L26,53.3967264 Z" id="Fill-54" fill="#FFFFFF" mask="url(#mask-2)"></path>
                    <path d="M33,53.3967264 C33,53.7303196 32.7292098,54 32.3962711,54 L28.6044688,54 C28.2700503,54 28,53.7303196 28,53.3967264 L28,49.6048324 C28,49.2704599 28.2700503,49 28.6044688,49 L32.3962711,49 C32.7292098,49 33,49.2704599 33,49.6048324 L33,53.3967264 Z" id="Fill-55" fill="#FFFFFF" mask="url(#mask-2)"></path>
                    <path d="M41,53.3967264 C41,53.7303196 40.7299497,54 40.3962711,54 L36.6044688,54 C36.2700503,54 36,53.7303196 36,53.3967264 L36,49.6048324 C36,49.2704599 36.2700503,49 36.6044688,49 L40.3962711,49 C40.7299497,49 41,49.2704599 41,49.6048324 L41,53.3967264 Z" id="Fill-56" fill="#FFFFFF" mask="url(#mask-2)"></path>
                    <path d="M48,53.3967264 C48,53.7303196 47.7299497,54 47.3962711,54 L43.6037289,54 C43.2700503,54 43,53.7303196 43,53.3967264 L43,49.6048324 C43,49.2704599 43.2700503,49 43.6037289,49 L47.3962711,49 C47.7299497,49 48,49.2704599 48,49.6048324 L48,53.3967264 Z" id="Fill-57" fill="#FFFFFF" mask="url(#mask-2)"></path>
                    <path d="M11,61.395947 C11,61.7295401 10.7292098,62 10.3962711,62 L6.60372891,62 C6.27005031,62 6,61.7295401 6,61.395947 L6,57.604053 C6,57.2704599 6.27005031,57 6.60372891,57 L10.3962711,57 C10.7292098,57 11,57.2704599 11,57.604053 L11,61.395947 Z" id="Fill-58" fill="#FFFFFF" mask="url(#mask-2)"></path>
                    <path d="M18,61.395947 C18,61.7295401 17.7292098,62 17.3962711,62 L13.6044688,62 C13.2700503,62 13,61.7295401 13,61.395947 L13,57.604053 C13,57.2704599 13.2700503,57 13.6044688,57 L17.3962711,57 C17.7292098,57 18,57.2704599 18,57.604053 L18,61.395947 Z" id="Fill-59" fill="#FFFFFF" mask="url(#mask-2)"></path>
                    <path d="M26,61.395947 C26,61.7295401 25.7292098,62 25.3962711,62 L21.6044688,62 C21.2700503,62 21,61.7295401 21,61.395947 L21,57.604053 C21,57.2704599 21.2700503,57 21.6044688,57 L25.3962711,57 C25.7292098,57 26,57.2704599 26,57.604053 L26,61.395947 Z" id="Fill-60" fill="#FFFFFF" mask="url(#mask-2)"></path>
                    <path d="M33,61.395947 C33,61.7295401 32.7292098,62 32.3962711,62 L28.6044688,62 C28.2700503,62 28,61.7295401 28,61.395947 L28,57.604053 C28,57.2704599 28.2700503,57 28.6044688,57 L32.3962711,57 C32.7292098,57 33,57.2704599 33,57.604053 L33,61.395947 Z" id="Fill-61" fill="#FFFFFF" mask="url(#mask-2)"></path>
                    <path d="M41,61.395947 C41,61.7295401 40.7299497,62 40.3962711,62 L36.6044688,62 C36.2700503,62 36,61.7295401 36,61.395947 L36,57.604053 C36,57.2704599 36.2700503,57 36.6044688,57 L40.3962711,57 C40.7299497,57 41,57.2704599 41,57.604053 L41,61.395947 Z" id="Fill-62" fill="#FFFFFF" mask="url(#mask-2)"></path>
                    <path d="M48,61.395947 C48,61.7295401 47.7299497,62 47.3962711,62 L43.6037289,62 C43.2700503,62 43,61.7295401 43,61.395947 L43,57.604053 C43,57.2704599 43.2700503,57 43.6037289,57 L47.3962711,57 C47.7299497,57 48,57.2704599 48,57.604053 L48,61.395947 Z" id="Fill-63" fill="#FFFFFF" mask="url(#mask-2)"></path>
                    <path d="M27.6745027,25 L23.3254973,25 C23.1461724,25 23,24.8538056 23,24.6744537 L23,20.3247928 C23,20.1461944 23.1461724,20 23.3254973,20 L27.6745027,20 C27.8538276,20 28,20.1461944 28,20.3247928 L28,24.6744537 C28,24.8538056 27.8538276,25 27.6745027,25" id="Fill-64" fill="#FFBB00" mask="url(#mask-2)"></path>
                    <path d="M31.1880116,17.9821678 L27.210579,16.5892728 C27.0470428,16.5323305 26.9601643,16.3520134 27.01784,16.1877569 L28.4100874,12.2112898 C28.4677631,12.0470333 28.6480909,11.9601599 28.811627,12.0178322 L32.7890596,13.4107272 C32.9525958,13.4676695 33.0394744,13.6479866 32.9825287,13.8122431 L31.5895512,17.7887102 C31.5326056,17.9529667 31.3522778,18.0398401 31.1880116,17.9821678" id="Fill-65" fill="#4285F4" mask="url(#mask-2)"></path>
                    <path d="M20.6745027,23 L16.3254973,23 C16.1461724,23 16,22.8538056 16,22.6744537 L16,18.3247928 C16,18.1461944 16.1461724,18 16.3254973,18 L20.6745027,18 C20.8538276,18 21,18.1461944 21,18.3247928 L21,22.6744537 C21,22.8538056 20.8538276,23 20.6745027,23" id="Fill-66" fill="#00A1F1" mask="url(#mask-2)"></path>
                    <path d="M21.148373,10.9924991 L19.1114417,10.3487325 C19.0277124,10.3220292 18.9807951,10.2318153 19.0075019,10.1480968 L19.6513512,8.11142737 C19.6773361,8.02770885 19.7675617,7.98079762 19.8520127,8.00750094 L21.8882222,8.65126746 C21.9726733,8.67797078 22.0195906,8.76746298 21.992162,8.85190321 L21.3483127,10.8885726 C21.3223278,10.9722911 21.2321023,11.0192024 21.148373,10.9924991" id="Fill-67" fill="#F65314" mask="url(#mask-2)"></path>
                    <path d="M32.6745027,29 L28.3254973,29 C28.1461724,29 28,28.8538056 28,28.6744537 L28,24.3247928 C28,24.1461944 28.1461724,24 28.3254973,24 L32.6745027,24 C32.8538276,24 33,24.1461944 33,24.3247928 L33,28.6744537 C33,28.8538056 32.8538276,29 32.6745027,29" id="Fill-68" fill="#F65314" mask="url(#mask-2)"></path>
                    <path d="M24.6745027,18 L20.3254973,18 C20.1461724,18 20,17.8538056 20,17.6744537 L20,13.3247928 C20,13.1461944 20.1461724,13 20.3254973,13 L24.6745027,13 C24.8538276,13 25,13.1461944 25,13.3247928 L25,17.6744537 C25,17.8538056 24.8538276,18 24.6745027,18" id="Fill-69" fill="#7CBB00" mask="url(#mask-2)"></path>
                    <path d="M17.6745027,12 L13.3254973,12 C13.1461724,12 13,11.8538056 13,11.6744537 L13,7.32479277 C13,7.14619442 13.1461724,7 13.3254973,7 L17.6745027,7 C17.8538276,7 18,7.14619442 18,7.32479277 L18,11.6744537 C18,11.8538056 17.8538276,12 17.6745027,12" id="Fill-70" fill="#4285F4" mask="url(#mask-2)"></path>
                    <path d="M9.67502649,12 L5.32497351,12 C5.14570823,12 5,11.8534346 5,11.674201 L5,7.32579905 C5,7.1456825 5.14570823,7 5.32497351,7 L9.67502649,7 C9.85429177,7 10,7.1456825 10,7.32579905 L10,11.674201 C10,11.8534346 9.85429177,12 9.67502649,12" id="Fill-71" fill="#FD5C63" mask="url(#mask-2)"></path>
                    <path d="M6.73946037,7 L3.26053963,7 C3.11720067,7 3,6.88361796 3,6.74024879 L3,3.25975121 C3,3.11722538 3.11720067,3 3.26053963,3 L6.73946037,3 C6.88279933,3 7,3.11722538 7,3.25975121 L7,6.74024879 C7,6.88361796 6.88279933,7 6.73946037,7" id="Fill-72" fill="#34A853" mask="url(#mask-2)"></path>
                    <path d="M15.6751092,17 L11.3257642,17 C11.1458515,17 11,16.8541485 11,16.6751092 L11,12.3248908 C11,12.1458515 11.1458515,12 11.3257642,12 L15.6751092,12 C15.8541485,12 16,12.1458515 16,12.3248908 L16,16.6751092 C16,16.8541485 15.8541485,17 15.6751092,17" id="Fill-73" fill="#FFBB00" mask="url(#mask-2)"></path>
                    <path d="M2.14809679,4.99250403 L0.111427369,4.34873644 C0.0277088531,4.32203308 -0.0192023844,4.23181901 0.00750093543,4.14810035 L0.651267457,2.11142755 C0.677970776,2.0277089 0.767462983,1.98079758 0.851903211,2.00750095 L2.88857263,2.65126854 C2.97229115,2.6779719 3.01920238,2.76746426 2.99249906,2.85190462 L2.34873254,4.88785571 C2.32202922,4.97229608 2.23181531,5.01920739 2.14809679,4.99250403" id="Fill-74" fill="#00A1F1" mask="url(#mask-2)"></path>
                    <path d="M14.1480968,21.9924991 L12.1114274,21.3487325 C12.0277089,21.3220292 11.9807976,21.2318153 12.0075009,21.1480968 L12.6512675,19.1114274 C12.6779708,19.0277089 12.7681847,18.9807976 12.8519032,19.0075009 L14.8885726,19.6512675 C14.9722911,19.6779708 15.0192024,19.7681847 14.9924991,19.8519032 L14.3487325,21.8885726 C14.3220292,21.9722911 14.2318153,22.0192024 14.1480968,21.9924991" id="Fill-75" fill="#34A853" mask="url(#mask-2)"></path>
                    <path d="M21.6752072,20 L17.3255463,20 C17.1461944,20 17,19.8538056 17,19.6744537 L17,15.3247928 C17,15.1461944 17.1461944,15 17.3255463,15 L21.6752072,15 C21.8538056,15 22,15.1461944 22,15.3247928 L22,19.6744537 C22,19.8538056 21.8538056,20 21.6752072,20" id="Fill-76" fill="#FD5C63" mask="url(#mask-2)"></path>
                </g>
            </g>
        </g>
    </g>
</svg>