<?xml version="1.0" encoding="utf-8"?>
<!-- Generator: Adobe Illustrator 24.1.3, SVG Export Plug-In . SVG Version: 6.00 Build 0)  -->
<svg version="1.1" id="Layer_1" xmlns="http://www.w3.org/2000/svg" xmlns:xlink="http://www.w3.org/1999/xlink" x="0px" y="0px"
	 viewBox="0 0 807 319.67" style="enable-background:new 0 0 807 319.67;" xml:space="preserve">
<style type="text/css">
	.st0{fill:#555555;}
	.st1{fill-rule:evenodd;clip-rule:evenodd;fill:#313131;}
	.st2{fill:#26AEE5;}
	.st3{fill:#1AA4DE;}
	.st4{fill:#2193D2;}
	.st5{fill:#27AEE4;}
	.st6{fill:#2593D1;}
</style>
<g>
	<g>
		<path class="st0" d="M25.62,302.71c-0.39,3.62-1.69,6.4-3.89,8.32c-2.2,1.92-5.13,2.88-8.78,2.88c-2.55,0-4.81-0.64-6.77-1.91
			c-1.96-1.28-3.48-3.08-4.55-5.42c-1.07-2.34-1.62-5.01-1.63-8.02v-4.47c0-3.06,0.54-5.77,1.61-8.13s2.61-4.19,4.62-5.47
			c2.01-1.28,4.32-1.93,6.94-1.93c3.69,0,6.6,0.99,8.73,2.98c2.13,1.99,3.38,4.73,3.72,8.25h-2.93c-0.72-5.85-3.9-8.77-9.52-8.77
			c-3.12,0-5.6,1.17-7.46,3.5s-2.78,5.56-2.78,9.67v4.21c0,3.97,0.9,7.14,2.71,9.51c1.8,2.36,4.24,3.55,7.31,3.55
			c3.04,0,5.33-0.73,6.88-2.19c1.54-1.46,2.5-3.64,2.86-6.56H25.62z"/>
		<path class="st0" d="M47.24,299.1h-10v14.35h-2.93v-34.41h11.18c3.67,0,6.54,0.89,8.6,2.67c2.06,1.78,3.1,4.26,3.1,7.46
			c0,2.2-0.65,4.15-1.94,5.83c-1.29,1.68-3.02,2.85-5.2,3.49l8.6,14.65v0.31h-3.1L47.24,299.1z M37.25,296.64h8.91
			c2.44,0,4.4-0.69,5.88-2.08c1.48-1.39,2.22-3.19,2.22-5.4c0-2.43-0.77-4.32-2.32-5.66c-1.54-1.34-3.71-2.01-6.5-2.01h-8.2V296.64z
			"/>
		<path class="st0" d="M85.81,296.95H69.72v14.04h18.5v2.46H66.81v-34.41H88.1v2.46H69.72v13h16.09V296.95z"/>
		<path class="st0" d="M114.62,303.78H99l-3.54,9.67h-3.05l13.02-34.41h2.77l13.02,34.41h-3.02L114.62,303.78z M99.9,301.32h13.8
			l-6.9-18.74L99.9,301.32z"/>
		<path class="st0" d="M148.27,281.49h-11.79v31.95h-2.91v-31.95H121.8v-2.46h26.47V281.49z"/>
		<path class="st0" d="M159.07,313.44h-2.91v-34.41h2.91V313.44z"/>
		<path class="st0" d="M180.48,309.19l0.19,0.73l0.21-0.73l10.82-30.16h3.19l-12.81,34.41h-2.79l-12.81-34.41h3.17L180.48,309.19z"
			/>
		<path class="st0" d="M220.66,296.95h-16.09v14.04h18.5v2.46h-21.41v-34.41h21.29v2.46h-18.39v13h16.09V296.95z"/>
	</g>
	<g id="Shape_1_2_">
		<g>
			<rect x="236.36" y="275.59" class="st0" width="3.64" height="41.85"/>
		</g>
	</g>
	<g>
		<path class="st0" d="M267.27,298.99v11.91h-2.47v-29.24h9.96c3.04,0,5.44,0.78,7.2,2.33c1.76,1.55,2.64,3.69,2.64,6.41
			c0,2.74-0.85,4.86-2.54,6.35c-1.69,1.49-4.15,2.24-7.36,2.24H267.27z M267.27,296.9h7.49c2.4,0,4.22-0.57,5.48-1.71
			c1.26-1.14,1.89-2.73,1.89-4.77c0-2.02-0.63-3.64-1.88-4.84c-1.25-1.2-3.03-1.81-5.33-1.84h-7.65V296.9z"/>
		<path class="st0" d="M299.59,291.22c-0.51-0.09-1.05-0.14-1.63-0.14c-1.5,0-2.77,0.42-3.8,1.26c-1.04,0.84-1.78,2.05-2.22,3.64
			v14.92h-2.39v-21.73h2.35l0.04,3.45c1.27-2.57,3.31-3.85,6.12-3.85c0.67,0,1.2,0.09,1.59,0.26L299.59,291.22z"/>
		<path class="st0" d="M301.66,299.71c0-2.09,0.4-3.97,1.21-5.64c0.81-1.67,1.95-2.97,3.43-3.91c1.48-0.93,3.16-1.4,5.03-1.4
			c2.89,0,5.23,1.01,7.03,3.04c1.79,2.03,2.69,4.72,2.69,8.06v0.5c0,2.1-0.4,3.99-1.21,5.67c-0.81,1.68-1.95,2.98-3.42,3.89
			c-1.47,0.91-3.15,1.37-5.04,1.37c-2.88,0-5.22-1.01-7.02-3.04c-1.8-2.03-2.7-4.72-2.7-8.06V299.71z M304.07,300.37
			c0,2.6,0.67,4.73,2.02,6.4c1.35,1.67,3.11,2.5,5.29,2.5c2.17,0,3.93-0.83,5.27-2.5c1.35-1.67,2.02-3.87,2.02-6.6v-0.46
			c0-1.66-0.31-3.18-0.92-4.56c-0.62-1.38-1.48-2.45-2.59-3.2c-1.11-0.76-2.38-1.13-3.82-1.13c-2.14,0-3.89,0.84-5.24,2.52
			c-1.35,1.68-2.03,3.88-2.03,6.6V300.37z"/>
		<path class="st0" d="M327.75,310.89v-19.76h-3.59v-1.97h3.59v-2.63c0-2.22,0.57-3.93,1.7-5.12c1.13-1.19,2.71-1.79,4.73-1.79
			c0.91,0,1.76,0.11,2.55,0.34l-0.18,1.99c-0.67-0.16-1.4-0.24-2.19-0.24c-1.33,0-2.36,0.41-3.09,1.24c-0.74,0.83-1.1,2-1.1,3.51
			v2.7h5.18v1.97h-5.18v19.76H327.75z"/>
		<path class="st0" d="M348.05,311.3c-1.85,0-3.52-0.46-5.01-1.37c-1.49-0.91-2.65-2.18-3.48-3.81c-0.83-1.63-1.24-3.45-1.24-5.47
			v-0.86c0-2.09,0.4-3.97,1.21-5.64c0.81-1.67,1.94-2.99,3.38-3.95c1.45-0.96,3.01-1.44,4.7-1.44c2.64,0,4.73,0.9,6.27,2.7
			c1.55,1.8,2.32,4.26,2.32,7.38v1.35h-15.5v0.46c0,2.46,0.71,4.51,2.12,6.15c1.41,1.64,3.19,2.46,5.33,2.46
			c1.29,0,2.42-0.23,3.4-0.7c0.98-0.47,1.88-1.22,2.68-2.25l1.51,1.14C353.97,310.02,351.41,311.3,348.05,311.3z M347.6,290.82
			c-1.81,0-3.33,0.66-4.57,1.99c-1.24,1.33-1.99,3.11-2.26,5.34h13.03v-0.26c-0.07-2.09-0.66-3.79-1.79-5.1
			C350.9,291.47,349.42,290.82,347.6,290.82z"/>
		<path class="st0" d="M373.89,305.37c0-1.19-0.48-2.15-1.44-2.87c-0.96-0.72-2.4-1.29-4.33-1.7c-1.93-0.41-3.42-0.88-4.49-1.41
			c-1.06-0.53-1.85-1.17-2.37-1.94c-0.52-0.76-0.77-1.69-0.77-2.77c0-1.71,0.72-3.13,2.15-4.25c1.43-1.12,3.27-1.68,5.5-1.68
			c2.42,0,4.37,0.6,5.83,1.8c1.47,1.2,2.2,2.76,2.2,4.69h-2.41c0-1.27-0.53-2.33-1.6-3.17c-1.06-0.84-2.41-1.26-4.03-1.26
			c-1.58,0-2.85,0.35-3.8,1.05c-0.96,0.7-1.44,1.62-1.44,2.74c0,1.08,0.4,1.92,1.19,2.52c0.8,0.6,2.25,1.14,4.36,1.64
			c2.11,0.5,3.69,1.02,4.74,1.59c1.05,0.56,1.83,1.24,2.34,2.03c0.51,0.79,0.76,1.75,0.76,2.87c0,1.83-0.74,3.3-2.22,4.4
			c-1.48,1.1-3.41,1.65-5.79,1.65c-2.53,0-4.58-0.61-6.15-1.84c-1.57-1.22-2.36-2.77-2.36-4.65h2.41c0.09,1.41,0.69,2.5,1.78,3.28
			c1.09,0.78,2.53,1.17,4.33,1.17c1.67,0,3.03-0.37,4.06-1.1S373.89,306.5,373.89,305.37z"/>
		<path class="st0" d="M394.71,305.37c0-1.19-0.48-2.15-1.44-2.87c-0.96-0.72-2.4-1.29-4.33-1.7c-1.93-0.41-3.42-0.88-4.49-1.41
			c-1.06-0.53-1.85-1.17-2.37-1.94c-0.52-0.76-0.77-1.69-0.77-2.77c0-1.71,0.72-3.13,2.15-4.25s3.27-1.68,5.5-1.68
			c2.42,0,4.37,0.6,5.83,1.8c1.47,1.2,2.2,2.76,2.2,4.69h-2.41c0-1.27-0.53-2.33-1.6-3.17c-1.06-0.84-2.41-1.26-4.03-1.26
			c-1.58,0-2.85,0.35-3.8,1.05c-0.96,0.7-1.44,1.62-1.44,2.74c0,1.08,0.4,1.92,1.19,2.52c0.8,0.6,2.25,1.14,4.36,1.64
			c2.11,0.5,3.69,1.02,4.74,1.59c1.05,0.56,1.83,1.24,2.34,2.03c0.51,0.79,0.76,1.75,0.76,2.87c0,1.83-0.74,3.3-2.22,4.4
			c-1.48,1.1-3.41,1.65-5.79,1.65c-2.53,0-4.58-0.61-6.15-1.84c-1.57-1.22-2.36-2.77-2.36-4.65H383c0.09,1.41,0.69,2.5,1.78,3.28
			c1.09,0.78,2.53,1.17,4.33,1.17c1.67,0,3.03-0.37,4.06-1.1S394.71,306.5,394.71,305.37z"/>
		<path class="st0" d="M402.38,282.89c0-0.45,0.15-0.83,0.44-1.15c0.29-0.31,0.7-0.47,1.2-0.47c0.51,0,0.91,0.16,1.21,0.47
			c0.3,0.31,0.45,0.7,0.45,1.15c0,0.45-0.15,0.83-0.45,1.14c-0.3,0.31-0.71,0.46-1.21,0.46c-0.51,0-0.91-0.15-1.2-0.46
			C402.53,283.72,402.38,283.35,402.38,282.89z M405.21,310.89h-2.41v-21.73h2.41V310.89z"/>
		<path class="st0" d="M410.41,299.71c0-2.09,0.4-3.97,1.21-5.64c0.81-1.67,1.95-2.97,3.43-3.91c1.48-0.93,3.16-1.4,5.03-1.4
			c2.89,0,5.23,1.01,7.03,3.04c1.79,2.03,2.69,4.72,2.69,8.06v0.5c0,2.1-0.4,3.99-1.21,5.67c-0.81,1.68-1.95,2.98-3.42,3.89
			c-1.47,0.91-3.15,1.37-5.04,1.37c-2.88,0-5.22-1.01-7.02-3.04c-1.8-2.03-2.7-4.72-2.7-8.06V299.71z M412.82,300.37
			c0,2.6,0.67,4.73,2.02,6.4c1.35,1.67,3.11,2.5,5.29,2.5c2.17,0,3.93-0.83,5.27-2.5c1.35-1.67,2.02-3.87,2.02-6.6v-0.46
			c0-1.66-0.31-3.18-0.92-4.56c-0.62-1.38-1.48-2.45-2.59-3.2c-1.11-0.76-2.38-1.13-3.82-1.13c-2.14,0-3.89,0.84-5.24,2.52
			c-1.35,1.68-2.03,3.88-2.03,6.6V300.37z"/>
		<path class="st0" d="M437.06,289.17l0.08,3.71c0.82-1.34,1.83-2.36,3.05-3.06s2.56-1.05,4.04-1.05c2.33,0,4.06,0.66,5.2,1.97
			c1.14,1.31,1.71,3.28,1.73,5.9v14.26h-2.39v-14.28c-0.01-1.94-0.42-3.39-1.23-4.34c-0.81-0.95-2.11-1.43-3.89-1.43
			c-1.49,0-2.8,0.47-3.95,1.4c-1.14,0.93-1.99,2.19-2.54,3.76v14.88h-2.39v-21.73H437.06z"/>
		<path class="st0" d="M471.07,310.89c-0.24-0.68-0.39-1.69-0.46-3.03c-0.84,1.1-1.92,1.94-3.22,2.54c-1.31,0.6-2.69,0.89-4.15,0.89
			c-2.09,0-3.78-0.58-5.07-1.75c-1.29-1.16-1.94-2.64-1.94-4.42c0-2.11,0.88-3.79,2.64-5.02c1.76-1.23,4.21-1.85,7.36-1.85h4.36
			v-2.47c0-1.55-0.48-2.77-1.44-3.66c-0.96-0.89-2.35-1.34-4.19-1.34c-1.67,0-3.06,0.43-4.16,1.29c-1.1,0.86-1.65,1.89-1.65,3.09
			l-2.41-0.02c0-1.73,0.8-3.22,2.41-4.49c1.61-1.27,3.58-1.9,5.92-1.9c2.42,0,4.33,0.61,5.73,1.82c1.4,1.21,2.12,2.9,2.16,5.07
			v10.28c0,2.1,0.22,3.67,0.66,4.72v0.24H471.07z M463.52,309.17c1.61,0,3.04-0.39,4.31-1.16c1.26-0.78,2.19-1.81,2.76-3.11v-4.78
			h-4.3c-2.4,0.03-4.27,0.47-5.62,1.32c-1.35,0.85-2.03,2.02-2.03,3.5c0,1.22,0.45,2.23,1.36,3.03
			C460.9,308.77,462.07,309.17,463.52,309.17z"/>
		<path class="st0" d="M482.07,310.89h-2.41v-30.84h2.41V310.89z"/>
		<path class="st0" d="M498.46,282.89c0-0.45,0.15-0.83,0.44-1.15c0.29-0.31,0.7-0.47,1.2-0.47c0.51,0,0.91,0.16,1.21,0.47
			c0.3,0.31,0.45,0.7,0.45,1.15c0,0.45-0.15,0.83-0.45,1.14c-0.3,0.31-0.71,0.46-1.21,0.46c-0.51,0-0.91-0.15-1.2-0.46
			C498.61,283.72,498.46,283.35,498.46,282.89z M501.29,310.89h-2.41v-21.73h2.41V310.89z"/>
		<path class="st0" d="M510.1,289.17l0.08,3.71c0.82-1.34,1.83-2.36,3.05-3.06c1.22-0.7,2.56-1.05,4.04-1.05
			c2.33,0,4.06,0.66,5.2,1.97c1.14,1.31,1.71,3.28,1.73,5.9v14.26h-2.39v-14.28c-0.01-1.94-0.42-3.39-1.23-4.34
			c-0.81-0.95-2.11-1.43-3.89-1.43c-1.49,0-2.8,0.47-3.95,1.4c-1.14,0.93-1.99,2.19-2.54,3.76v14.88h-2.39v-21.73H510.1z"/>
		<path class="st0" d="M545.6,305.89l0.36,1.87l0.48-1.97l5.22-16.63h2.05l5.16,16.48l0.56,2.29l0.46-2.11l4.46-16.67h2.49
			l-6.33,21.73h-2.05l-5.58-17.23l-0.26-1.18l-0.26,1.2l-5.48,17.21h-2.05l-6.3-21.73h2.47L545.6,305.89z"/>
		<path class="st0" d="M573.8,292.84c0.79-1.3,1.8-2.3,3.03-3.01c1.23-0.71,2.58-1.06,4.04-1.06c2.33,0,4.06,0.66,5.2,1.97
			c1.14,1.31,1.71,3.28,1.73,5.9v14.26h-2.39v-14.28c-0.01-1.94-0.42-3.39-1.23-4.34c-0.81-0.95-2.11-1.43-3.89-1.43
			c-1.49,0-2.8,0.47-3.95,1.4c-1.14,0.93-1.99,2.19-2.54,3.76v14.88h-2.39v-30.84h2.39V292.84z"/>
		<path class="st0" d="M607.69,310.89c-0.24-0.68-0.39-1.69-0.46-3.03c-0.84,1.1-1.92,1.94-3.22,2.54c-1.31,0.6-2.69,0.89-4.15,0.89
			c-2.09,0-3.78-0.58-5.07-1.75c-1.29-1.16-1.94-2.64-1.94-4.42c0-2.11,0.88-3.79,2.64-5.02c1.76-1.23,4.21-1.85,7.36-1.85h4.36
			v-2.47c0-1.55-0.48-2.77-1.44-3.66c-0.96-0.89-2.35-1.34-4.19-1.34c-1.67,0-3.06,0.43-4.16,1.29c-1.1,0.86-1.65,1.89-1.65,3.09
			l-2.41-0.02c0-1.73,0.8-3.22,2.41-4.49c1.61-1.27,3.58-1.9,5.92-1.9c2.42,0,4.33,0.61,5.73,1.82c1.4,1.21,2.12,2.9,2.16,5.07
			v10.28c0,2.1,0.22,3.67,0.66,4.72v0.24H607.69z M600.14,309.17c1.61,0,3.04-0.39,4.31-1.16c1.26-0.78,2.19-1.81,2.76-3.11v-4.78
			h-4.3c-2.4,0.03-4.27,0.47-5.62,1.32c-1.35,0.85-2.03,2.02-2.03,3.5c0,1.22,0.45,2.23,1.36,3.03
			C597.52,308.77,598.69,309.17,600.14,309.17z"/>
		<path class="st0" d="M619.74,283.61v5.56h4.5v1.97h-4.5v14.49c0,1.21,0.22,2.1,0.65,2.69c0.44,0.59,1.16,0.88,2.18,0.88
			c0.4,0,1.05-0.07,1.95-0.2l0.1,1.95c-0.63,0.23-1.49,0.34-2.57,0.34c-1.65,0-2.84-0.48-3.59-1.44c-0.75-0.96-1.12-2.37-1.12-4.23
			v-14.5h-4v-1.97h4v-5.56H619.74z"/>
		<path class="st0" d="M646.1,307.44l6.35-18.27h2.59l-9.28,25.42l-0.48,1.12c-1.19,2.64-3.03,3.96-5.52,3.96
			c-0.58,0-1.19-0.09-1.85-0.28l-0.02-1.99l1.24,0.12c1.18,0,2.13-0.29,2.86-0.87s1.35-1.58,1.86-3l1.06-2.93l-8.19-21.54h2.63
			L646.1,307.44z"/>
		<path class="st0" d="M657.42,299.71c0-2.09,0.4-3.97,1.21-5.64c0.81-1.67,1.95-2.97,3.43-3.91c1.48-0.93,3.16-1.4,5.03-1.4
			c2.89,0,5.23,1.01,7.03,3.04c1.79,2.03,2.69,4.72,2.69,8.06v0.5c0,2.1-0.4,3.99-1.21,5.67c-0.81,1.68-1.95,2.98-3.42,3.89
			c-1.47,0.91-3.15,1.37-5.04,1.37c-2.88,0-5.22-1.01-7.02-3.04c-1.8-2.03-2.7-4.72-2.7-8.06V299.71z M659.83,300.37
			c0,2.6,0.67,4.73,2.02,6.4c1.35,1.67,3.11,2.5,5.29,2.5c2.17,0,3.93-0.83,5.27-2.5c1.35-1.67,2.02-3.87,2.02-6.6v-0.46
			c0-1.66-0.31-3.18-0.92-4.56c-0.62-1.38-1.48-2.45-2.59-3.2c-1.11-0.76-2.38-1.13-3.82-1.13c-2.14,0-3.89,0.84-5.24,2.52
			c-1.35,1.68-2.03,3.88-2.03,6.6V300.37z"/>
		<path class="st0" d="M695.76,308.14c-1.45,2.1-3.75,3.15-6.93,3.15c-2.32,0-4.08-0.67-5.28-2.02c-1.2-1.35-1.82-3.34-1.85-5.97
			v-14.14h2.39V303c0,4.14,1.67,6.2,5.02,6.2c3.48,0,5.68-1.44,6.61-4.32v-15.72h2.41v21.73h-2.33L695.76,308.14z"/>
		<path class="st0" d="M719.57,305.89l0.36,1.87l0.48-1.97l5.22-16.63h2.05l5.16,16.48l0.56,2.29l0.46-2.11l4.46-16.67h2.49
			l-6.33,21.73h-2.05l-5.58-17.23l-0.26-1.18l-0.26,1.2l-5.48,17.21h-2.05l-6.3-21.73h2.47L719.57,305.89z"/>
		<path class="st0" d="M759.08,310.89c-0.24-0.68-0.39-1.69-0.46-3.03c-0.84,1.1-1.92,1.94-3.22,2.54c-1.31,0.6-2.69,0.89-4.15,0.89
			c-2.09,0-3.78-0.58-5.07-1.75c-1.29-1.16-1.94-2.64-1.94-4.42c0-2.11,0.88-3.79,2.64-5.02c1.76-1.23,4.21-1.85,7.36-1.85h4.36
			v-2.47c0-1.55-0.48-2.77-1.44-3.66c-0.96-0.89-2.35-1.34-4.19-1.34c-1.67,0-3.06,0.43-4.16,1.29c-1.1,0.86-1.65,1.89-1.65,3.09
			l-2.41-0.02c0-1.73,0.8-3.22,2.41-4.49c1.61-1.27,3.58-1.9,5.92-1.9c2.42,0,4.33,0.61,5.73,1.82c1.4,1.21,2.12,2.9,2.16,5.07
			v10.28c0,2.1,0.22,3.67,0.66,4.72v0.24H759.08z M751.54,309.17c1.61,0,3.04-0.39,4.31-1.16c1.26-0.78,2.19-1.81,2.76-3.11v-4.78
			h-4.3c-2.4,0.03-4.27,0.47-5.62,1.32c-1.35,0.85-2.03,2.02-2.03,3.5c0,1.22,0.45,2.23,1.36,3.03
			C748.91,308.77,750.09,309.17,751.54,309.17z"/>
		<path class="st0" d="M769.69,289.17l0.08,3.71c0.82-1.34,1.83-2.36,3.05-3.06c1.22-0.7,2.56-1.05,4.04-1.05
			c2.33,0,4.06,0.66,5.2,1.97c1.14,1.31,1.71,3.28,1.73,5.9v14.26h-2.39v-14.28c-0.01-1.94-0.42-3.39-1.23-4.34
			c-0.81-0.95-2.11-1.43-3.89-1.43c-1.49,0-2.8,0.47-3.95,1.4c-1.14,0.93-1.99,2.19-2.54,3.76v14.88h-2.39v-21.73H769.69z"/>
		<path class="st0" d="M793.72,283.61v5.56h4.5v1.97h-4.5v14.49c0,1.21,0.22,2.1,0.65,2.69c0.44,0.59,1.16,0.88,2.18,0.88
			c0.4,0,1.05-0.07,1.95-0.2l0.1,1.95c-0.63,0.23-1.49,0.34-2.57,0.34c-1.65,0-2.84-0.48-3.59-1.44c-0.75-0.96-1.12-2.37-1.12-4.23
			v-14.5h-4v-1.97h4v-5.56H793.72z"/>
		<path class="st0" d="M802.98,309.45c0-0.47,0.15-0.87,0.45-1.19s0.72-0.49,1.26-0.49c0.54,0,0.96,0.16,1.26,0.49
			s0.46,0.73,0.46,1.19c0,0.47-0.15,0.85-0.46,1.15c-0.31,0.3-0.73,0.45-1.26,0.45c-0.54,0-0.95-0.15-1.26-0.45
			C803.13,310.3,802.98,309.92,802.98,309.45z"/>
	</g>
	<g id="Tech">
		<g>
			<path class="st1" d="M371.54,15.17H222.86l10.19,27.51h32.63v201.25h30.81V42.68h75.06V15.17z M399.19,71.62
				c-20.23,0-37.35,7.95-51.37,23.85c-14.02,15.9-21.03,35.99-21.03,60.28v6.88c0,25.33,6.8,45.76,20.4,61.3
				c13.6,15.53,32.55,23.3,56.84,23.3c13.97,0,25.9-2.01,35.81-6.02c9.9-4.01,17.88-8.94,23.92-14.78l-12.04-20.02
				c-5.63,5.22-12.38,9.31-20.25,12.28c-7.87,2.97-17.02,4.46-27.44,4.46c-15.43,0-26.9-5.29-34.4-15.87
				c-7.5-10.58-11.26-24.37-11.26-41.36l0.47-0.78h108.21v-16.26c0-23.35-5.66-42.06-16.97-56.13
				C438.78,78.65,421.81,71.62,399.19,71.62z M436.25,140.89h-76.31l-0.31-0.78c1.56-12.92,5.86-23.53,12.9-31.82
				c7.04-8.29,15.92-12.43,26.66-12.43c12.61,0,21.94,4.02,27.99,12.04c6.05,8.03,9.07,18.19,9.07,30.49V140.89z M568.85,71.62
				c-23.67,0-41.98,8.11-54.96,24.32c-12.98,16.21-19.47,36.25-19.47,60.12v6.57c0,24.08,6.47,44.2,19.39,60.36
				c12.93,16.16,31.27,24.24,55.04,24.24c17.1,0,32.11-5.65,45.03-16.97c12.92-11.31,19.18-24.26,18.76-38.86l-0.47-0.94h-27.83
				c0,9.18-3.55,16.92-10.63,23.22c-7.09,6.31-15.38,9.46-24.86,9.46c-15.32,0-26.4-5.84-33.23-17.52
				c-6.83-11.67-10.24-26.01-10.24-43v-6.57c0-16.68,3.47-30.88,10.4-42.61c6.93-11.73,17.96-17.59,33.07-17.59
				c10.22,0,18.69,3.63,25.41,10.87c6.72,7.25,10.08,16.03,10.08,26.35h27.99l0.31-0.94c0.41-16.99-5.4-31.32-17.44-43
				C603.17,77.46,587.72,71.62,568.85,71.62z M791.91,87.88c-10.06-10.84-24.11-16.26-42.14-16.26c-10.32,0-19.73,2.27-28.23,6.8
				c-8.5,4.53-15.66,10.87-21.5,19V0h-30.8v243.93h30.8V117.12c4.17-6.46,9.64-11.49,16.42-15.09c6.78-3.6,14.75-5.39,23.93-5.39
				c11.88,0,20.82,3.34,26.82,10.01c5.99,6.67,8.99,16.99,8.99,30.96v106.33H807V137.92C807,115.4,801.97,98.72,791.91,87.88z"/>
		</g>
	</g>
	<g id="H_6_">
		<g>
			<rect x="27.53" y="110.28" class="st2" width="108.49" height="31.28"/>
		</g>
	</g>
	<g id="H_copy_2_">
		<g>
			<polygon class="st3" points="29.39,110.28 27.53,110.28 27.53,141.57 41.22,141.57 			"/>
		</g>
	</g>
	<g id="H_4_">
		<g>
			<rect x="0.19" y="14.66" class="st4" width="29.52" height="230"/>
		</g>
	</g>
	<g id="Z_2_">
		<g>
			<polygon class="st5" points="172.21,42.92 46.74,217.11 85.07,217.1 211.25,42.92 			"/>
		</g>
	</g>
	<g id="Z_copy_4_2_">
		<g>
			<polygon class="st3" points="46.74,217.11 85.07,217.1 92.55,206.77 			"/>
		</g>
	</g>
	<g id="Z_copy_2_">
		<g>
			<polygon class="st3" points="172.21,42.92 164.6,53.48 211.25,42.92 			"/>
		</g>
	</g>
	<g id="Z_copy_2_2_">
		<g>
			<polygon class="st6" points="200.72,15.4 59.14,15.4 59.14,43.05 211.25,43.05 			"/>
		</g>
	</g>
	<g id="Z_copy_3_2_">
		<g>
			<polygon class="st6" points="211.24,217.01 46.76,217.01 57.28,244.66 211.24,244.66 			"/>
		</g>
	</g>
</g>
</svg>
